<svg enable-background="new 0 0 471.468 471.468" height="512" viewBox="0 0 471.468 471.468" width="512" xmlns="http://www.w3.org/2000/svg"><path d="m162.203 5.319h147.063v460.83h-147.063z" fill="#ef5261"/><path d="m182.759 25.875h105.951v197.209h-105.951z" fill="#eeefee"/><circle cx="235.734" cy="389.247" fill="#eeefee" r="49.469"/><path d="m274.253 389.264c.4 21.716-16.879 39.644-38.595 40.044s-39.644-16.879-40.044-38.595 16.88-39.644 38.595-40.044c19.532-.36 36.367 13.672 39.531 32.949.379 1.858.551 3.751.513 5.646z" fill="#414451"/><g fill="#dbd8dd"><path d="m194.675 39.966h82.112v8.109h-82.112z"/><path d="m194.675 66.91h82.112v8.109h-82.112z"/><path d="m194.675 93.854h82.112v8.109h-82.112z"/><path d="m194.675 120.799h82.112v8.109h-82.112z"/><path d="m194.675 147.737h82.112v8.109h-82.112z"/></g><path d="m324.405 5.319h147.063v460.83h-147.063z" fill="#69b0ee"/><path d="m344.961 25.875h105.951v197.209h-105.951z" fill="#eeefee"/><circle cx="397.936" cy="389.247" fill="#eeefee" r="49.469"/><path d="m436.432 389.264c.401 21.722-16.884 39.656-38.606 40.057s-39.656-16.884-40.057-38.606 16.884-39.656 38.606-40.057c19.538-.36 36.379 13.676 39.544 32.96.379 1.858.551 3.751.513 5.646z" fill="#414451"/><path d="m356.878 39.966h82.112v8.109h-82.112z" fill="#dbd8dd"/><path d="m356.878 66.91h82.112v8.109h-82.112z" fill="#dbd8dd"/><path d="m356.878 93.854h82.112v8.109h-82.112z" fill="#dbd8dd"/><path d="m356.878 120.799h82.112v8.109h-82.112z" fill="#dbd8dd"/><path d="m356.878 147.737h82.112v8.109h-82.112z" fill="#dbd8dd"/><path d="m0 5.319h147.063v460.83h-147.063z" fill="#f6c863"/><path d="m24.74 25.875h105.951v197.209h-105.951z" fill="#eeefee"/><circle cx="77.716" cy="389.247" fill="#eeefee" r="49.469"/><path d="m116.181 389.264c.4 21.716-16.879 39.644-38.595 40.044s-39.644-16.879-40.044-38.595 16.879-39.644 38.595-40.044c19.532-.36 36.367 13.672 39.532 32.949.378 1.858.55 3.751.512 5.646z" fill="#414451"/><path d="m36.657 39.966h82.112v8.109h-82.112z" fill="#dbd8dd"/><path d="m36.657 66.91h82.112v8.109h-82.112z" fill="#dbd8dd"/><path d="m36.657 93.854h82.112v8.109h-82.112z" fill="#dbd8dd"/><path d="m36.657 120.799h82.112v8.109h-82.112z" fill="#dbd8dd"/><path d="m36.657 147.737h82.112v8.109h-82.112z" fill="#dbd8dd"/></svg>